0
SECTION
2
HEADER
9
$INSUNITS
70
4
9
$ACADVER
1
AC1014
9
$HANDSEED
5
FFFF
0
ENDSEC
0
SECTION
2
TABLES
0
TABLE
2
VPORT
5
8
100
AcDbSymbolTable
0
ENDTAB
0
TABLE
2
LTYPE
5
5
100
AcDbSymbolTable
0
LTYPE
5
14
100
AcDbSymbolTableRecord
100
AcDbLinetypeTableRecord
2
BYBLOCK
70
0
0
LTYPE
5
15
100
AcDbSymbolTableRecord
100
AcDbLinetypeTableRecord
2
BYLAYER
70
0
0
ENDTAB
0
TABLE
2
LAYER
5
2
100
AcDbSymbolTable
70
2
0
LAYER
5
50
100
AcDbSymbolTableRecord
100
AcDbLayerTableRecord
2
0
70
0
6
CONTINUOUS
0
ENDTAB
0
TABLE
2
STYLE
5
3
100
AcDbSymbolTable
70
1
0
STYLE
5
11
100
AcDbSymbolTableRecord
100
AcDbTextStyleTableRecord
2
STANDARD
70
0
0
ENDTAB
0
TABLE
2
VIEW
5
6
100
AcDbSymbolTable
70
0
0
ENDTAB
0
TABLE
2
UCS
5
7
100
AcDbSymbolTable
70
0
0
ENDTAB
0
TABLE
2
APPID
5
9
100
AcDbSymbolTable
70
2
0
APPID
5
12
100
AcDbSymbolTableRecord
100
AcDbRegAppTableRecord
2
ACAD
70
0
0
ENDTAB
0
TABLE
2
DIMSTYLE
5
A
100
AcDbSymbolTable
70
1
0
ENDTAB
0
TABLE
2
BLOCK_RECORD
5
1
100
AcDbSymbolTable
70
1
0
BLOCK_RECORD
5
1F
100
AcDbSymbolTableRecord
100
AcDbBlockTableRecord
2
*MODEL_SPACE
0
BLOCK_RECORD
5
1B
100
AcDbSymbolTableRecord
100
AcDbBlockTableRecord
2
*PAPER_SPACE
0
ENDTAB
0
ENDSEC
0
SECTION
2
BLOCKS
0
BLOCK
5
20
100
AcDbEntity
100
AcDbBlockBegin
2
*MODEL_SPACE
0
ENDBLK
5
21
100
AcDbEntity
100
AcDbBlockEnd
0
BLOCK
5
1C
100
AcDbEntity
100
AcDbBlockBegin
2
*PAPER_SPACE
0
ENDBLK
5
1D
100
AcDbEntity
100
AcDbBlockEnd
0
ENDSEC
0
SECTION
2
ENTITIES
0
CIRCLE
5
100
100
AcDbEntity
8
0
100
AcDbCircle
10
0
20
0
30
0
40
50
210
0
220
0
230
1
0
LWPOLYLINE
5
101
100
AcDbEntity
8
0
100
AcDbPolyline
90
4
70
1
43
0.0
10
30
20
35
10
-30
20
35
10
-30
20
-35
10
30
20
-35
0
SPLINE
5
102
100
AcDbEntity
8
0
100
AcDbSpline
70
0
71
2
72
6
73
3
74
0
42
0.000000001
43
0.0000000001
44
0.0000000001
40
0
40
0
40
0
40
1
40
1
40
1
10
-7.1354311168740869
20
23.006851917559999
30
0
10
-5.2163761318277002
20
20.933602100665468
30
0
10
-2.1527593792031885
20
20.933602100665468
30
0
0
SPLINE
5
103
100
AcDbEntity
8
0
100
AcDbSpline
70
0
71
2
72
6
73
3
74
0
42
0.000000001
43
0.0000000001
44
0.0000000001
40
0
40
0
40
0
40
1
40
1
40
1
10
-2.1527593792031885
20
20.933602100665468
30
0
10
0.86283748740447752
20
20.933602100665468
30
0
10
4.9225456058431982
20
22.043359524066354
30
0
0
SPLINE
5
104
100
AcDbEntity
8
0
100
AcDbSpline
70
0
71
2
72
6
73
3
74
0
42
0.000000001
43
0.0000000001
44
0.0000000001
40
0
40
0
40
0
40
1
40
1
40
1
10
4.9225456058431982
20
22.043359524066354
30
0
10
6.8658310710836767
20
22.589643245990182
30
0
10
7.7235919773031592
20
23.270304447467232
30
0
0
SPLINE
5
105
100
AcDbEntity
8
0
100
AcDbSpline
70
0
71
2
72
6
73
3
74
0
42
0.000000001
43
0.0000000001
44
0.0000000001
40
0
40
0
40
0
40
1
40
1
40
1
10
7.7235919773031592
20
23.270304447467232
30
0
10
8.6804754077841153
20
24.029820209796334
30
0
10
10.232108288948666
20
24.029820209796334
30
0
0
SPLINE
5
106
100
AcDbEntity
8
0
100
AcDbSpline
70
0
71
2
72
6
73
3
74
0
42
0.000000001
43
0.0000000001
44
0.0000000001
40
0
40
0
40
0
40
1
40
1
40
1
10
10.232108288948666
20
24.029820209796334
30
0
10
11.444953137581479
20
24.029820209796334
30
0
10
12.952974492256772
20
23.057072407061963
30
0
0
SPLINE
5
107
100
AcDbEntity
8
0
100
AcDbSpline
70
0
71
2
72
6
73
3
74
0
42
0.000000001
43
0.0000000001
44
0.0000000001
40
0
40
0
40
0
40
1
40
1
40
1
10
12.952974492256772
20
23.057072407061963
30
0
10
14.0587646305014
20
22.437212711627392
30
0
10
14.0587646305014
20
21.281640774066357
30
0
0
SPLINE
5
108
100
AcDbEntity
8
0
100
AcDbSpline
70
0
71
2
72
6
73
3
74
0
42
0.000000001
43
0.0000000001
44
0.0000000001
40
0
40
0
40
0
40
1
40
1
40
1
10
14.0587646305014
20
21.281640774066357
30
0
10
14.0587646305014
20
19.981119877154732
30
0
10
12.241919690315854
20
19.158609157855416
30
0
0
SPLINE
5
109
100
AcDbEntity
8
0
100
AcDbSpline
70
0
71
2
72
6
73
3
74
0
42
0.000000001
43
0.0000000001
44
0.0000000001
40
0
40
0
40
0
40
1
40
1
40
1
10
12.241919690315854
20
19.158609157855416
30
0
10
11.129959279244076
20
18.644919639880563
30
0
10
8.8029510318685933
20
18.170001751239205
30
0
0
SPLINE
5
110
100
AcDbEntity
8
0
100
AcDbSpline
70
0
71
2
72
6
73
3
74
0
42
0.000000001
43
0.0000000001
44
0.0000000001
40
0
40
0
40
0
40
1
40
1
40
1
10
8.8029510318685933
20
18.170001751239205
30
0
10
8.8791662990499898
20
12.358646637256051
30
0
10
8.9937097370077534
20
9.1245367587160118
30
0
0
SPLINE
5
111
100
AcDbEntity
8
0
100
AcDbSpline
70
0
71
2
72
6
73
3
74
0
42
0.000000001
43
0.0000000001
44
0.0000000001
40
0
40
0
40
0
40
1
40
1
40
1
10
8.9937097370077534
20
9.1245367587160118
30
0
10
12.438405209725033
20
9.846165424640084
30
0
10
14.211195164864193
20
10.92243934279194
30
0
0
SPLINE
5
112
100
AcDbEntity
8
0
100
AcDbSpline
70
0
71
2
72
6
73
3
74
0
42
0.000000001
43
0.0000000001
44
0.0000000001
40
0
40
0
40
0
40
1
40
1
40
1
10
14.211195164864193
20
10.92243934279194
30
0
10
15.244296246712338
20
11.613669639880566
30
0
10
16.452296429817807
20
11.613669639880566
30
0
0
SPLINE
5
113
100
AcDbEntity
8
0
100
AcDbSpline
70
0
71
2
72
6
73
3
74
0
42
0.000000001
43
0.0000000001
44
0.0000000001
40
0
40
0
40
0
40
1
40
1
40
1
10
16.452296429817807
20
11.613669639880566
30
0
10
17.987631016914975
20
11.613669639880566
30
0
10
18.952887707893979
20
10.977509266192822
30
0
0
SPLINE
5
114
100
AcDbEntity
8
0
100
AcDbSpline
70
0
71
2
72
6
73
3
74
0
42
0.000000001
43
0.0000000001
44
0.0000000001
40
0
40
0
40
0
40
1
40
1
40
1
10
18.952887707893979
20
10.977509266192822
30
0
10
21.135833913033139
20
10.147063976581006
30
0
10
21.135833913033139
20
8.9205601275514645
30
0
0
SPLINE
5
115
100
AcDbEntity
8
0
100
AcDbSpline
70
0
71
2
72
6
73
3
74
0
42
0.000000001
43
0.0000000001
44
0.0000000001
40
0
40
0
40
0
40
1
40
1
40
1
10
21.135833913033139
20
8.9205601275514645
30
0
10
21.135833913033139
20
7.4165060580324216
30
0
10
18.793404751961372
20
6.6129353106569333
30
0
0
SPLINE
5
116
100
AcDbEntity
8
0
100
AcDbSpline
70
0
71
2
72
6
73
3
74
0
42
0.000000001
43
0.0000000001
44
0.0000000001
40
0
40
0
40
0
40
1
40
1
40
1
10
18.793404751961372
20
6.6129353106569333
30
0
10
15.948742085640571
20
5.6265332758974118
30
0
10
9.1377717792440869
20
4.8251655161928175
30
0
0
LINE
5
117
100
AcDbEntity
8
0
100
AcDbLine
10
9.1377717792440869
20
4.8251655161928175
30
0
11
9.1840297519613721
21
3.9876701891969679
31
0
0
LINE
5
118
100
AcDbEntity
8
0
100
AcDbLine
10
9.1840297519613721
20
3.9876701891969679
30
0
11
9.3223649799276807
21
0.42006040220966323
31
0
0
SPLINE
5
119
100
AcDbEntity
8
0
100
AcDbSpline
70
0
71
2
72
6
73
3
74
0
42
0.000000001
43
0.0000000001
44
0.0000000001
40
0
40
0
40
0
40
1
40
1
40
1
10
9.3223649799276807
20
0.42006040220966323
30
0
10
9.5157653629232861
20
-4.6683452069211961
30
0
10
9.606078320686958
20
-6.6133949696470262
30
0
0
SPLINE
5
120
100
AcDbEntity
8
0
100
AcDbSpline
70
0
71
2
72
6
73
3
74
0
42
0.000000001
43
0.0000000001
44
0.0000000001
40
0
40
0
40
0
40
1
40
1
40
1
10
9.606078320686958
20
-6.6133949696470262
30
0
10
13.223913365547798
20
-7.3927328526426317
30
0
10
17.558973485176704
20
-9.1716930806089394
30
0
0
SPLINE
5
121
100
AcDbEntity
8
0
100
AcDbSpline
70
0
71
2
72
6
73
3
74
0
42
0.000000001
43
0.0000000001
44
0.0000000001
40
0
40
0
40
0
40
1
40
1
40
1
10
17.558973485176704
20
-9.1716930806089394
30
0
10
23.291905575935981
20
-11.537029498760795
30
0
10
23.291905575935981
20
-14.724881404583549
30
0
0
SPLINE
5
122
100
AcDbEntity
8
0
100
AcDbSpline
70
0
71
2
72
6
73
3
74
0
42
0.000000001
43
0.0000000001
44
0.0000000001
40
0
40
0
40
0
40
1
40
1
40
1
10
23.291905575935981
20
-14.724881404583549
30
0
10
23.291905575935981
20
-15.886628383343314
30
0
10
22.6288730441977
20
-16.584903949444389
30
0
0
SPLINE
5
123
100
AcDbEntity
8
0
100
AcDbSpline
70
0
71
2
72
6
73
3
74
0
42
0.000000001
43
0.0000000001
44
0.0000000001
40
0
40
0
40
0
40
1
40
1
40
1
10
22.6288730441977
20
-16.584903949444389
30
0
10
21.896231824104927
20
-17.390677684490775
30
0
10
20.930536442940376
20
-17.390677684490775
30
0
0
SPLINE
5
124
100
AcDbEntity
8
0
100
AcDbSpline
70
0
71
2
72
6
73
3
74
0
42
0.000000001
43
0.0000000001
44
0.0000000001
40
0
40
0
40
0
40
1
40
1
40
1
10
20.930536442940376
20
-17.390677684490775
30
0
10
19.737513714974067
20
-17.390677684490775
30
0
10
18.501756840889595
20
-16.247880214398002
30
0
0
SPLINE
5
125
100
AcDbEntity
8
0
100
AcDbSpline
70
0
71
2
72
6
73
3
74
0
42
0.000000001
43
0.0000000001
44
0.0000000001
40
0
40
0
40
0
40
1
40
1
40
1
10
18.501756840889595
20
-16.247880214398002
30
0
10
15.624054127876899
20
-13.6397955357481
30
0
10
9.8289996921469189
20
-11.223795169537162
30
0
0
SPLINE
5
126
100
AcDbEntity
8
0
100
AcDbSpline
70
0
71
2
72
6
73
3
74
0
42
0.000000001
43
0.0000000001
44
0.0000000001
40
0
40
0
40
0
40
1
40
1
40
1
10
9.8289996921469189
20
-11.223795169537162
30
0
10
9.8289996921469189
20
-10.845362895672416
30
0
10
9.8845083057333447
20
-11.78198074692974
30
0
0
SPLINE
5
127
100
AcDbEntity
8
0
100
AcDbSpline
70
0
71
2
72
6
73
3
74
0
42
0.000000001
43
0.0000000001
44
0.0000000001
40
0
40
0
40
0
40
1
40
1
40
1
10
9.8845083057333447
20
-11.78198074692974
30
0
10
9.8845083057333447
20
-11.848942989056205
30
0
10
9.8845083057333447
20
-12.015034908001518
30
0
0
SPLINE
5
128
100
AcDbEntity
8
0
100
AcDbSpline
70
0
71
2
72
6
73
3
74
0
42
0.000000001
43
0.0000000001
44
0.0000000001
40
0
40
0
40
0
40
1
40
1
40
1
10
9.8845083057333447
20
-12.015034908001518
30
0
10
9.8845083057333447
20
-15.363685840313529
30
0
10
8.3267099201132275
20
-17.521083110516166
30
0
0
SPLINE
5
129
100
AcDbEntity
8
0
100
AcDbSpline
70
0
71
2
72
6
73
3
74
0
42
0.000000001
43
0.0000000001
44
0.0000000001
40
0
40
0
40
0
40
1
40
1
40
1
10
8.3267099201132275
20
-17.521083110516166
30
0
10
7.6235849201132266
20
-18.499114268963432
30
0
10
6.3151389896322696
20
-19.188582652752494
30
0
0
SPLINE
5
130
100
AcDbEntity
8
0
100
AcDbSpline
70
0
71
2
72
6
73
3
74
0
42
0.000000001
43
0.0000000001
44
0.0000000001
40
0
40
0
40
0
40
1
40
1
40
1
10
6.3151389896322696
20
-19.188582652752494
30
0
10
3.7599236308981387
20
-20.598795169537162
30
0
10
-0.24515802269683196
20
-20.598795169537162
30
0
0
SPLINE
5
131
100
AcDbEntity
8
0
100
AcDbSpline
70
0
71
2
72
6
73
3
74
0
42
0.000000001
43
0.0000000001
44
0.0000000001
40
0
40
0
40
0
40
1
40
1
40
1
10
-0.24515802269683196
20
-20.598795169537162
30
0
10
-4.7123807132791073
20
-20.598795169537162
30
0
10
-8.2399004161904834
20
-18.644497150127982
30
0
0
SPLINE
5
132
100
AcDbEntity
8
0
100
AcDbSpline
70
0
71
2
72
6
73
3
74
0
42
0.000000001
43
0.0000000001
44
0.0000000001
40
0
40
0
40
0
40
1
40
1
40
1
10
-8.2399004161904834
20
-18.644497150127982
30
0
10
-12.060390061194756
20
-16.491067165081596
30
0
10
-12.060390061194756
20
-12.610661739056205
30
0
0
SPLINE
5
133
100
AcDbEntity
8
0
100
AcDbSpline
70
0
71
2
72
6
73
3
74
0
42
0.000000001
43
0.0000000001
44
0.0000000001
40
0
40
0
40
0
40
1
40
1
40
1
10
-12.060390061194756
20
-12.610661739056205
30
0
10
-12.060390061194759
20
-9.5021078526426308
30
0
10
-9.0042632282327197
20
-7.5918648182798432
30
0
0
SPLINE
5
134
100
AcDbEntity
8
0
100
AcDbSpline
70
0
71
2
72
6
73
3
74
0
42
0.000000001
43
0.0000000001
44
0.0000000001
40
0
40
0
40
0
40
1
40
1
40
1
10
-9.0042632282327197
20
-7.5918648182798432
30
0
10
-5.5168336093972759
20
-5.4260990559507416
30
0
10
0.11433427924408157
20
-5.4260990559507372
30
0
0
SPLINE
5
135
100
AcDbEntity
8
0
100
AcDbSpline
70
0
71
2
72
6
73
3
74
0
42
0.000000001
43
0.0000000001
44
0.0000000001
40
0
40
0
40
0
40
1
40
1
40
1
10
0.11433427924408157
20
-5.4260990559507372
30
0
10
2.3074156581808491
20
-5.4260990559507372
30
0
10
4.5815569698263614
20
-5.8129045903135301
30
0
0
LINE
5
136
100
AcDbEntity
8
0
100
AcDbLine
10
4.5815569698263614
20
-5.8129045903135301
30
0
11
4.5560056507040469
21
-5.4935047566343309
31
0
0
LINE
5
137
100
AcDbEntity
8
0
100
AcDbLine
10
4.5560056507040469
20
-5.4935047566343309
30
0
11
4.4432241260458385
21
-2.3972866475034715
31
0
0
SPLINE
5
138
100
AcDbEntity
8
0
100
AcDbSpline
70
0
71
2
72
6
73
3
74
0
42
0.000000001
43
0.0000000001
44
0.0000000001
40
0
40
0
40
0
40
1
40
1
40
1
10
4.4432241260458394
20
-2.3972866475034715
30
0
10
4.2511421977926656
20
2.8179981768678664
30
0
10
4.2106110393453999
20
4.3872525752138136
30
0
0
SPLINE
5
139
100
AcDbEntity
8
0
100
AcDbSpline
70
0
71
2
72
6
73
3
74
0
42
0.000000001
43
0.0000000001
44
0.0000000001
40
0
40
0
40
0
40
1
40
1
40
1
10
4.2106110393453999
20
4.3872525752138136
30
0
10
1.6888768016745015
20
4.0832712710451124
30
0
10
-0.079509562308652804
20
4.0832712710451124
30
0
0
SPLINE
5
140
100
AcDbEntity
8
0
100
AcDbSpline
70
0
71
2
72
6
73
3
74
0
42
0.000000001
43
0.0000000001
44
0.0000000001
40
0
40
0
40
0
40
1
40
1
40
1
10
-0.079509562308652804
20
4.0832712710451124
30
0
10
-8.7227481067727641
20
4.083271271045108
30
0
10
-11.369600838477476
20
8.7024858058046295
30
0
0
LINE
5
141
100
AcDbEntity
8
0
100
AcDbLine
10
-11.369600838477476
20
8.7024858058046277
30
0
11
-8.9914863765786723
21
10.488052612597842
31
0
0
SPLINE
5
142
100
AcDbEntity
8
0
100
AcDbSpline
70
0
71
2
72
6
73
3
74
0
42
0.000000001
43
0.0000000001
44
0.0000000001
40
0
40
0
40
0
40
1
40
1
40
1
10
-8.9914863765786723
20
10.488052612597842
30
0
10
-6.731001681144102
20
8.1949665606569244
30
0
10
-0.41124755745635788
20
8.1949665606569297
30
0
0
SPLINE
5
143
100
AcDbEntity
8
0
100
AcDbSpline
70
0
71
2
72
6
73
3
74
0
42
0.000000001
43
0.0000000001
44
0.0000000001
40
0
40
0
40
0
40
1
40
1
40
1
10
-0.41124755745635788
20
8.1949665606569297
30
0
10
1.7730218707968159
20
8.1949665606569297
30
0
10
4.0841705142904683
20
8.4808852732728965
30
0
0
SPLINE
5
144
100
AcDbEntity
8
0
100
AcDbSpline
70
0
71
2
72
6
73
3
74
0
42
0.000000001
43
0.0000000001
44
0.0000000001
40
0
40
0
40
0
40
1
40
1
40
1
10
4.0841705142904683
20
8.4808852732728965
30
0
10
3.8634521305014058
20
13.859176880175973
30
0
10
3.792524987404482
20
17.400353199298287
30
0
0
SPLINE
5
145
100
AcDbEntity
8
0
100
AcDbSpline
70
0
71
2
72
6
73
3
74
0
42
0.000000001
43
0.0000000001
44
0.0000000001
40
0
40
0
40
0
40
1
40
1
40
1
10
3.792524987404482
20
17.400353199298287
30
0
10
1.7452675640036031
20
16.98579097395649
30
0
10
-0.35573655968414108
20
16.985790973956487
30
0
0
SPLINE
5
146
100
AcDbEntity
8
0
100
AcDbSpline
70
0
71
2
72
6
73
3
74
0
42
0.000000001
43
0.0000000001
44
0.0000000001
40
0
40
0
40
0
40
1
40
1
40
1
10
-0.35573655968414108
20
16.985790973956487
30
0
10
-4.1704981983254985
20
16.985790973956487
30
0
10
-6.1591618717263774
20
17.951047664935491
30
0
0
SPLINE
5
147
100
AcDbEntity
8
0
100
AcDbSpline
70
0
71
2
72
6
73
3
74
0
42
0.000000001
43
0.0000000001
44
0.0000000001
40
0
40
0
40
0
40
1
40
1
40
1
10
-6.1591618717263774
20
17.951047664935491
30
0
10
-7.9513376415322856
20
18.80175853377094
30
0
10
-9.1302626789163241
20
21.156523472125428
30
0
0
LINE
5
148
100
AcDbEntity
8
0
100
AcDbLine
10
-9.1302626789163241
20
21.156523472125436
30
0
11
-7.1354311168740869
21
23.006851917559999
31
0
0
SPLINE
5
149
100
AcDbEntity
8
0
100
AcDbSpline
70
0
71
2
72
6
73
3
74
0
42
0.000000001
43
0.0000000001
44
0.0000000001
40
0
40
0
40
0
40
1
40
1
40
1
10
4.7234160243917911
20
-9.915349239056205
30
0
10
1.4421660243917911
20
-9.2078182637144081
30
0
10
-0.82580978279815032
20
-9.2078182637144081
30
0
0
SPLINE
5
150
100
AcDbEntity
8
0
100
AcDbSpline
70
0
71
2
72
6
73
3
74
0
42
0.000000001
43
0.0000000001
44
0.0000000001
40
0
40
0
40
0
40
1
40
1
40
1
10
-0.82580978279815032
20
-9.2078182637144081
30
0
10
-4.2546456516335995
20
-9.2078182637144081
30
0
10
-6.538039988334039
20
-10.524637454693412
30
0
0
SPLINE
5
151
100
AcDbEntity
8
0
100
AcDbSpline
70
0
71
2
72
6
73
3
74
0
42
0.000000001
43
0.0000000001
44
0.0000000001
40
0
40
0
40
0
40
1
40
1
40
1
10
-6.538039988334039
20
-10.524637454693412
30
0
10
-8.0293172061990283
20
-11.376669162457084
30
0
10
-8.0293172061990283
20
-12.58334850663433
30
0
0
SPLINE
5
152
100
AcDbEntity
8
0
100
AcDbSpline
70
0
71
2
72
6
73
3
74
0
42
0.000000001
43
0.0000000001
44
0.0000000001
40
0
40
0
40
0
40
1
40
1
40
1
10
-8.0293172061990283
20
-12.58334850663433
30
0
10
-8.0293172061990283
20
-14.294020885174369
30
0
10
-5.9943931758950741
20
-15.243856662457084
30
0
0
SPLINE
5
153
100
AcDbEntity
8
0
100
AcDbSpline
70
0
71
2
72
6
73
3
74
0
42
0.000000001
43
0.0000000001
44
0.0000000001
40
0
40
0
40
0
40
1
40
1
40
1
10
-5.9943931758950741
20
-15.243856662457084
30
0
10
-3.9123337925027402
20
-16.236426585857963
30
0
10
-0.88087732201323821
20
-16.236426585857963
30
0
0
SPLINE
5
154
100
AcDbEntity
8
0
100
AcDbSpline
70
0
71
2
72
6
73
3
74
0
42
0.000000001
43
0.0000000001
44
0.0000000001
40
0
40
0
40
0
40
1
40
1
40
1
10
-0.88087732201323821
20
-16.236426585857963
30
0
10
2.1532208263327091
20
-16.236426585857963
30
0
10
3.1717831432272403
20
-15.54299091691265
30
0
0
SPLINE
5
155
100
AcDbEntity
8
0
100
AcDbSpline
70
0
71
2
72
6
73
3
74
0
42
0.000000001
43
0.0000000001
44
0.0000000001
40
0
40
0
40
0
40
1
40
1
40
1
10
3.1717831432272403
20
-15.54299091691265
30
0
10
4.8027164279867618
20
-14.369795077984428
30
0
10
4.8027164279867618
20
-11.64012169236431
30
0
0
SPLINE
5
156
100
AcDbEntity
8
0
100
AcDbSpline
70
0
71
2
72
6
73
3
74
0
42
0.000000001
43
0.0000000001
44
0.0000000001
40
0
40
0
40
0
40
1
40
1
40
1
10
4.8027164279867618
20
-11.64012169236431
30
0
10
4.8027164279867618
20
-10.990741008465385
30
0
10
4.7234160243917911
20
-9.915349239056205
30
0
0
LINE
5
157
100
AcDbEntity
8
0
100
AcDbLine
10
-18.348864859397274
20
-2.3734972416807221
30
0
11
-16.101596897895199
21
-4.7798035084653892
31
0
0
SPLINE
5
158
100
AcDbEntity
8
0
100
AcDbSpline
70
0
71
2
72
6
73
3
74
0
42
0.000000001
43
0.0000000001
44
0.0000000001
40
0
40
0
40
0
40
1
40
1
40
1
10
-16.101596897895199
20
-4.77980350846539
30
0
10
-19.281077927405697
20
-11.356403583233462
30
0
10
-19.281077927405693
20
-14.548222774212466
30
0
0
SPLINE
5
159
100
AcDbEntity
8
0
100
AcDbSpline
70
0
71
2
72
6
73
3
74
0
42
0.000000001
43
0.0000000001
44
0.0000000001
40
0
40
0
40
0
40
1
40
1
40
1
10
-19.281077927405693
20
-14.548222774212466
30
0
10
-19.281077927405693
20
-14.987456554119692
30
0
10
-19.19208700066314
20
-15.545193904583559
30
0
0
SPLINE
5
160
100
AcDbEntity
8
0
100
AcDbSpline
70
0
71
2
72
6
73
3
74
0
42
0.000000001
43
0.0000000001
44
0.0000000001
40
0
40
0
40
0
40
1
40
1
40
1
10
-19.19208700066314
20
-15.545193904583559
30
0
10
-18.893831318671563
20
-17.810084575359927
30
0
10
-18.893831318671563
20
-18.888122790997134
30
0
0
SPLINE
5
161
100
AcDbEntity
8
0
100
AcDbSpline
70
0
71
2
72
6
73
3
74
0
42
0.000000001
43
0.0000000001
44
0.0000000001
40
0
40
0
40
0
40
1
40
1
40
1
10
-18.893831318671563
20
-18.888122790997134
30
0
10
-18.893831318671563
20
-21.331879848187075
30
0
10
-21.089554375464775
20
-21.331879848187075
30
0
0
SPLINE
5
162
100
AcDbEntity
8
0
100
AcDbSpline
70
0
71
2
72
6
73
3
74
0
42
0.000000001
43
0.0000000001
44
0.0000000001
40
0
40
0
40
0
40
1
40
1
40
1
10
-21.089554375464775
20
-21.331879848187075
30
0
10
-22.897149866874077
20
-21.331879848187075
30
0
10
-24.152730053717949
20
-18.600880855267153
30
0
0
SPLINE
5
163
100
AcDbEntity
8
0
100
AcDbSpline
70
0
71
2
72
6
73
3
74
0
42
0.000000001
43
0.0000000001
44
0.0000000001
40
0
40
0
40
0
40
1
40
1
40
1
10
-24.152730053717949
20
-18.600880855267153
30
0
10
-26.159455424601891
20
-14.276396983807192
30
0
10
-26.159455424601894
20
-6.6693422734190078
30
0
0
SPLINE
5
164
100
AcDbEntity
8
0
100
AcDbSpline
70
0
71
2
72
6
73
3
74
0
42
0.000000001
43
0.0000000001
44
0.0000000001
40
0
40
0
40
0
40
1
40
1
40
1
10
-26.159455424601894
20
-6.6693422734190078
30
0
10
-26.159455424601894
20
-3.1065795361448378
30
0
10
-25.495980924422604
20
1.2888338625978379
30
0
0
SPLINE
5
165
100
AcDbEntity
8
0
100
AcDbSpline
70
0
71
2
72
6
73
3
74
0
42
0.000000001
43
0.0000000001
44
0.0000000001
40
0
40
0
40
0
40
1
40
1
40
1
10
-25.495980924422604
20
1.2888338625978379
30
0
10
-24.970839566047054
20
4.62074781065692
30
0
10
-22.777759379203182
20
14.581685310656923
30
0
0
SPLINE
5
166
100
AcDbEntity
8
0
100
AcDbSpline
70
0
71
2
72
6
73
3
74
0
42
0.000000001
43
0.0000000001
44
0.0000000001
40
0
40
0
40
0
40
1
40
1
40
1
10
-22.777759379203182
20
14.581685310656923
30
0
10
-22.482588237578732
20
15.831539875323671
30
0
10
-22.261429375464779
20
17.014427429492372
30
0
0
SPLINE
5
167
100
AcDbEntity
8
0
100
AcDbSpline
70
0
71
2
72
6
73
3
74
0
42
0.000000001
43
0.0000000001
44
0.0000000001
40
0
40
0
40
0
40
1
40
1
40
1
10
-22.261429375464779
20
17.014427429492372
30
0
10
-21.791357940490109
20
19.335267788226503
30
0
10
-21.791357940490109
20
20.256908184344667
30
0
0
SPLINE
5
168
100
AcDbEntity
8
0
100
AcDbSpline
70
0
71
2
72
6
73
3
74
0
42
0.000000001
43
0.0000000001
44
0.0000000001
40
0
40
0
40
0
40
1
40
1
40
1
10
-21.791357940490109
20
20.256908184344667
30
0
10
-21.791357940490116
20
22.744720226580995
30
0
10
-23.892362660224308
20
24.528968578631776
30
0
0
LINE
5
169
100
AcDbEntity
8
0
100
AcDbLine
10
-23.892362660224308
20
24.528968578631776
30
0
11
-21.60191947823273
21
26.40484595900287
31
0
0
SPLINE
5
170
100
AcDbEntity
8
0
100
AcDbSpline
70
0
71
2
72
6
73
3
74
0
42
0.000000001
43
0.0000000001
44
0.0000000001
40
0
40
0
40
0
40
1
40
1
40
1
10
-21.60191947823273
20
26.40484595900287
30
0
10
-18.990312165076599
20
25.358088260943788
30
0
10
-17.34572226410614
20
23.265016323382753
30
0
0
SPLINE
5
171
100
AcDbEntity
8
0
100
AcDbSpline
70
0
71
2
72
6
73
3
74
0
42
0.000000001
43
0.0000000001
44
0.0000000001
40
0
40
0
40
0
40
1
40
1
40
1
10
-17.34572226410614
20
23.265016323382753
30
0
10
-15.825368708426819
20
21.784312969500917
30
0
10
-15.825368708426819
20
19.510171657855409
30
0
0
SPLINE
5
172
100
AcDbEntity
8
0
100
AcDbSpline
70
0
71
2
72
6
73
3
74
0
42
0.000000001
43
0.0000000001
44
0.0000000001
40
0
40
0
40
0
40
1
40
1
40
1
10
-15.825368708426819
20
19.510171657855409
30
0
10
-15.825368708426819
20
18.059423214251893
30
0
10
-17.185360735709533
20
15.573814159686464
30
0
0
SPLINE
5
173
100
AcDbEntity
8
0
100
AcDbSpline
70
0
71
2
72
6
73
3
74
0
42
0.000000001
43
0.0000000001
44
0.0000000001
40
0
40
0
40
0
40
1
40
1
40
1
10
-17.185360735709533
20
15.573814159686464
30
0
10
-18.077483719642029
20
13.825693374926942
30
0
10
-19.388133829886776
20
9.657607322986026
30
0
0
SPLINE
5
174
100
AcDbEntity
8
0
100
AcDbSpline
70
0
71
2
72
6
73
3
74
0
42
0.000000001
43
0.0000000001
44
0.0000000001
40
0
40
0
40
0
40
1
40
1
40
1
10
-19.388133829886776
20
9.657607322986026
30
0
10
-20.925669020469051
20
4.1665365756105377
30
0
10
-21.667562073523861
20
-2.537824863140683
30
0
0
SPLINE
5
175
100
AcDbEntity
8
0
100
AcDbSpline
70
0
71
2
72
6
73
3
74
0
42
0.000000001
43
0.0000000001
44
0.0000000001
40
0
40
0
40
0
40
1
40
1
40
1
10
-21.667562073523861
20
-2.537824863140683
30
0
10
-21.962293332869869
20
-5.164410823528871
30
0
10
-21.962293332869869
20
-6.8627474247861953
30
0
0
SPLINE
5
176
100
AcDbEntity
8
0
100
AcDbSpline
70
0
71
2
72
6
73
3
74
0
42
0.000000001
43
0.0000000001
44
0.0000000001
40
0
40
0
40
0
40
1
40
1
40
1
10
-21.962293332869869
20
-6.8627474247861953
30
0
10
-21.962293332869869
20
-8.5712168156553368
30
0
10
-21.905901974494316
20
-10.169107669537173
30
0
0
LINE
5
177
100
AcDbEntity
8
0
100
AcDbLine
10
-21.905901974494316
20
-10.169107669537173
30
0
11
-18.348864859397274
21
-2.3734972416807221
31
0
0
SPLINE
5
178
100
AcDbEntity
8
0
100
AcDbSpline
70
0
71
2
72
6
73
3
74
0
42
0.000000001
43
0.0000000001
44
0.0000000001
40
0
40
0
40
0
40
1
40
1
40
1
10
18.940108472054135
20
32.050111538226517
30
0
10
20.486014538948666
20
32.050111538226517
30
0
10
21.936319523995053
20
31.324961429889111
30
0
0
SPLINE
5
179
100
AcDbEntity
8
0
100
AcDbSpline
70
0
71
2
72
6
73
3
74
0
42
0.000000001
43
0.0000000001
44
0.0000000001
40
0
40
0
40
0
40
1
40
1
40
1
10
21.936319523995053
20
31.324961429889111
30
0
10
24.032481366341244
20
30.261900669391064
30
0
10
25.024169140999447
20
28.157813793475537
30
0
0
SPLINE
5
180
100
AcDbEntity
8
0
100
AcDbSpline
70
0
71
2
72
6
73
3
74
0
42
0.000000001
43
0.0000000001
44
0.0000000001
40
0
40
0
40
0
40
1
40
1
40
1
10
25.024169140999447
20
28.157813793475537
30
0
10
25.669577771370541
20
26.806195026690869
30
0
10
25.669577771370541
20
25.321524387652783
30
0
0
SPLINE
5
181
100
AcDbEntity
8
0
100
AcDbSpline
70
0
71
2
72
6
73
3
74
0
42
0.000000001
43
0.0000000001
44
0.0000000001
40
0
40
0
40
0
40
1
40
1
40
1
10
25.669577771370541
20
25.321524387652783
30
0
10
25.669577771370541
20
23.635080105121045
30
0
10
24.821513348763119
20
22.090499645526318
30
0
0
SPLINE
5
182
100
AcDbEntity
8
0
100
AcDbSpline
70
0
71
2
72
6
73
3
74
0
42
0.000000001
43
0.0000000001
44
0.0000000001
40
0
40
0
40
0
40
1
40
1
40
1
10
24.821513348763119
20
22.090499645526318
30
0
10
22.891882115547787
20
18.592934852893261
30
0
10
18.857286626045834
20
18.592934852893258
30
0
0
SPLINE
5
183
100
AcDbEntity
8
0
100
AcDbSpline
70
0
71
2
72
6
73
3
74
0
42
0.000000001
43
0.0000000001
44
0.0000000001
40
0
40
0
40
0
40
1
40
1
40
1
10
18.857286626045834
20
18.592934852893258
30
0
10
16.617506200020443
20
18.592934852893258
30
0
10
14.809468442146908
20
19.978921657855416
30
0
0
SPLINE
5
184
100
AcDbEntity
8
0
100
AcDbSpline
70
0
71
2
72
6
73
3
74
0
42
0.000000001
43
0.0000000001
44
0.0000000001
40
0
40
0
40
0
40
1
40
1
40
1
10
14.809468442146908
20
19.978921657855416
30
0
10
12.156451398079525
20
21.999304539019967
30
0
10
12.156451398079525
20
25.349281078631783
30
0
0
SPLINE
5
185
100
AcDbEntity
8
0
100
AcDbSpline
70
0
71
2
72
6
73
3
74
0
42
0.000000001
43
0.0000000001
44
0.0000000001
40
0
40
0
40
0
40
1
40
1
40
1
10
12.156451398079525
20
25.349281078631783
30
0
10
12.156451398079525
20
28.220374828631783
30
0
10
14.091365987007748
20
29.833681827838326
30
0
0
SPLINE
5
186
100
AcDbEntity
8
0
100
AcDbSpline
70
0
71
2
72
6
73
3
74
0
42
0.000000001
43
0.0000000001
44
0.0000000001
40
0
40
0
40
0
40
1
40
1
40
1
10
14.091365987007748
20
29.833681827838326
30
0
10
16.206029111092221
20
32.050111538226517
30
0
10
18.940108472054135
20
32.050111538226517
30
0
0
SPLINE
5
187
100
AcDbEntity
8
0
100
AcDbSpline
70
0
71
2
72
6
73
3
74
0
42
0.000000001
43
0.0000000001
44
0.0000000001
40
0
40
0
40
0
40
1
40
1
40
1
10
18.885038548653256
20
28.489554172809033
30
0
10
18.134778195564877
20
28.489554172809033
30
0
10
17.735632115547787
20
28.553431278521924
30
0
0
SPLINE
5
188
100
AcDbEntity
8
0
100
AcDbSpline
70
0
71
2
72
6
73
3
74
0
42
0.000000001
43
0.0000000001
44
0.0000000001
40
0
40
0
40
0
40
1
40
1
40
1
10
17.735632115547787
20
28.553431278521924
30
0
10
15.745208913033139
20
27.229564434344677
30
0
10
15.745208913033139
20
25.293767696673779
30
0
0
SPLINE
5
189
100
AcDbEntity
8
0
100
AcDbSpline
70
0
71
2
72
6
73
3
74
0
42
0.000000001
43
0.0000000001
44
0.0000000001
40
0
40
0
40
0
40
1
40
1
40
1
10
15.745208913033139
20
25.293767696673779
30
0
10
15.745208913033139
20
24.39768100386372
30
0
10
16.325419598763119
20
23.010814434344677
30
0
0
SPLINE
5
190
100
AcDbEntity
8
0
100
AcDbSpline
70
0
71
2
72
6
73
3
74
0
42
0.000000001
43
0.0000000001
44
0.0000000001
40
0
40
0
40
0
40
1
40
1
40
1
10
16.325419598763119
20
23.010814434344677
30
0
10
17.184942418282162
20
22.153494602496533
30
0
10
18.91279523963226
20
22.153494602496533
30
0
0
SPLINE
5
191
100
AcDbEntity
8
0
100
AcDbSpline
70
0
71
2
72
6
73
3
74
0
42
0.000000001
43
0.0000000001
44
0.0000000001
40
0
40
0
40
0
40
1
40
1
40
1
10
18.91279523963226
20
22.153494602496533
30
0
10
20.110662633125912
20
22.153494602496533
30
0
10
21.021731549446713
20
22.971165424640088
30
0
0
SPLINE
5
192
100
AcDbEntity
8
0
100
AcDbSpline
70
0
71
2
72
6
73
3
74
0
42
0.000000001
43
0.0000000001
44
0.0000000001
40
0
40
0
40
0
40
1
40
1
40
1
10
21.021731549446713
20
22.971165424640088
30
0
10
22.080820256416928
20
23.912632709796338
30
0
10
22.080820256416928
20
25.321524387652783
30
0
0
SPLINE
5
193
100
AcDbEntity
8
0
100
AcDbSpline
70
0
71
2
72
6
73
3
74
0
42
0.000000001
43
0.0000000001
44
0.0000000001
40
0
40
0
40
0
40
1
40
1
40
1
10
22.080820256416928
20
25.321524387652783
30
0
10
22.080820256416928
20
26.737025028521924
30
0
10
20.781624966805111
20
27.948110348040966
30
0
0
SPLINE
5
194
100
AcDbEntity
8
0
100
AcDbSpline
70
0
71
2
72
6
73
3
74
0
42
0.000000001
43
0.0000000001
44
0.0000000001
40
0
40
0
40
0
40
1
40
1
40
1
10
20.781624966805111
20
27.948110348040966
30
0
10
20.052951031868588
20
28.489554172809033
30
0
10
18.885038548653256
20
28.489554172809033
30
0
0
ENDSEC
0
SECTION
2
OBJECTS
0
DICTIONARY
5
C
100
AcDbDictionary
3
ACAD_GROUP
350
D
3
ACAD_MLINESTYLE
350
17
0
DICTIONARY
5
D
100
AcDbDictionary
0
DICTIONARY
5
1A
330
C
100
AcDbDictionary
0
DICTIONARY
5
17
100
AcDbDictionary
0
ENDSEC
0
EOF
