0
SECTION
2
HEADER
9
$INSUNITS
70
4
9
$ACADVER
1
AC1014
9
$HANDSEED
5
FFFF
0
ENDSEC
0
SECTION
2
TABLES
0
TABLE
2
VPORT
5
8
100
AcDbSymbolTable
0
ENDTAB
0
TABLE
2
LTYPE
5
5
100
AcDbSymbolTable
0
LTYPE
5
14
100
AcDbSymbolTableRecord
100
AcDbLinetypeTableRecord
2
BYBLOCK
70
0
0
LTYPE
5
15
100
AcDbSymbolTableRecord
100
AcDbLinetypeTableRecord
2
BYLAYER
70
0
0
ENDTAB
0
TABLE
2
LAYER
5
2
100
AcDbSymbolTable
70
2
0
LAYER
5
50
100
AcDbSymbolTableRecord
100
AcDbLayerTableRecord
2
0
70
0
6
CONTINUOUS
0
ENDTAB
0
TABLE
2
STYLE
5
3
100
AcDbSymbolTable
70
1
0
STYLE
5
11
100
AcDbSymbolTableRecord
100
AcDbTextStyleTableRecord
2
STANDARD
70
0
0
ENDTAB
0
TABLE
2
VIEW
5
6
100
AcDbSymbolTable
70
0
0
ENDTAB
0
TABLE
2
UCS
5
7
100
AcDbSymbolTable
70
0
0
ENDTAB
0
TABLE
2
APPID
5
9
100
AcDbSymbolTable
70
2
0
APPID
5
12
100
AcDbSymbolTableRecord
100
AcDbRegAppTableRecord
2
ACAD
70
0
0
ENDTAB
0
TABLE
2
DIMSTYLE
5
A
100
AcDbSymbolTable
70
1
0
ENDTAB
0
TABLE
2
BLOCK_RECORD
5
1
100
AcDbSymbolTable
70
1
0
BLOCK_RECORD
5
1F
100
AcDbSymbolTableRecord
100
AcDbBlockTableRecord
2
*MODEL_SPACE
0
BLOCK_RECORD
5
1B
100
AcDbSymbolTableRecord
100
AcDbBlockTableRecord
2
*PAPER_SPACE
0
ENDTAB
0
ENDSEC
0
SECTION
2
BLOCKS
0
BLOCK
5
20
100
AcDbEntity
100
AcDbBlockBegin
2
*MODEL_SPACE
0
ENDBLK
5
21
100
AcDbEntity
100
AcDbBlockEnd
0
BLOCK
5
1C
100
AcDbEntity
100
AcDbBlockBegin
2
*PAPER_SPACE
0
ENDBLK
5
1D
100
AcDbEntity
100
AcDbBlockEnd
0
ENDSEC
0
SECTION
2
ENTITIES
0
LWPOLYLINE
5
100
100
AcDbEntity
8
0
100
AcDbPolyline
90
4
70
1
43
0.0
10
30.36209441275977
20
-139.41445473175921
10
-29.637905587239715
20
-139.41445473175921
10
-29.6379055872397
20
-79.414454731759719
10
30.362094412759784
20
-79.414454731759733
0
CIRCLE
5
101
100
AcDbEntity
8
0
100
AcDbCircle
10
0
20
-110
30
0
40
50
210
0
220
0
230
1
0
LWPOLYLINE
5
102
100
AcDbEntity
8
0
100
AcDbPolyline
90
4
70
1
43
0.0
10
40
20
-80
10
-40
20
-80
10
-40
20
-140
10
40
20
-140
0
LINE
5
103
100
AcDbEntity
8
0
100
AcDbLine
10
-36.438366402669388
20
-91.914452347573928
30
0
11
-15.222768713517624
21
-91.914452347573928
31
0
0
SPLINE
5
104
100
AcDbEntity
8
0
100
AcDbSpline
70
0
71
2
72
6
73
3
74
0
42
0.000000001
43
0.0000000001
44
0.0000000001
40
0
40
0
40
0
40
1
40
1
40
1
10
-15.222768713517622
20
-91.914452347573928
30
0
10
-8.5025858178572236
20
-91.914452347573928
30
0
10
-4.9016689553694315
20
-95.320416722116164
30
0
0
SPLINE
5
105
100
AcDbEntity
8
0
100
AcDbSpline
70
0
71
2
72
6
73
3
74
0
42
0.000000001
43
0.0000000001
44
0.0000000001
40
0
40
0
40
0
40
1
40
1
40
1
10
-4.9016689553694315
20
-95.320416722116164
30
0
10
-1.3007497086958475
20
-98.726378712472609
30
0
10
-1.3007497086958475
20
-103.74931457978218
30
0
0
SPLINE
5
106
100
AcDbEntity
8
0
100
AcDbSpline
70
0
71
2
72
6
73
3
74
0
42
0.000000001
43
0.0000000001
44
0.0000000001
40
0
40
0
40
0
40
1
40
1
40
1
10
-1.3007497086958475
20
-103.74931457978218
30
0
10
-1.3007497086958519
20
-108.65757587891548
30
0
10
-4.7181820168928734
20
-112.09794167023628
30
0
0
SPLINE
5
107
100
AcDbEntity
8
0
100
AcDbSpline
70
0
71
2
72
6
73
3
74
0
42
0.000000001
43
0.0000000001
44
0.0000000001
40
0
40
0
40
0
40
1
40
1
40
1
10
-4.7181820168928734
20
-112.09794167023628
30
0
10
-8.1356143250898949
20
-115.53830746155708
30
0
10
-12.952127386613332
20
-115.53830746155708
30
0
0
SPLINE
5
108
100
AcDbEntity
8
0
100
AcDbSpline
70
0
71
2
72
6
73
3
74
0
42
0.000000001
43
0.0000000001
44
0.0000000001
40
0
40
0
40
0
40
1
40
1
40
1
10
-12.952127386613332
20
-115.53830746155708
30
0
10
-16.965887476487602
20
-115.53830746155708
30
0
10
-20.95671408323809
20
-112.48784664612739
30
0
0
LINE
5
109
100
AcDbEntity
8
0
100
AcDbLine
10
-20.95671408323809
20
-112.48784664612739
30
0
11
-20.956714083238094
21
-126.91445473175972
31
0
0
LINE
5
110
100
AcDbEntity
8
0
100
AcDbLine
10
-20.956714083238094
20
-126.91445473175972
30
0
11
-36.438366402669395
21
-126.91445473175972
31
0
0
LINE
5
111
100
AcDbEntity
8
0
100
AcDbLine
10
-36.438366402669395
20
-126.91445473175972
30
0
11
-36.438366402669388
21
-91.914452347573928
31
0
0
LINE
5
112
100
AcDbEntity
8
0
100
AcDbLine
10
-20.956714083238083
20
-99.483259949502639
30
0
11
-20.95671408323809
21
-107.09793928605049
31
0
0
SPLINE
5
113
100
AcDbEntity
8
0
100
AcDbSpline
70
0
71
2
72
6
73
3
74
0
42
0.000000001
43
0.0000000001
44
0.0000000001
40
0
40
0
40
0
40
1
40
1
40
1
10
-20.95671408323809
20
-107.09793928605049
30
0
10
-20.268640448136772
20
-107.28142622452705
30
0
10
-19.672310282273731
20
-107.28142622452705
30
0
0
SPLINE
5
114
100
AcDbEntity
8
0
100
AcDbSpline
70
0
71
2
72
6
73
3
74
0
42
0.000000001
43
0.0000000001
44
0.0000000001
40
0
40
0
40
0
40
1
40
1
40
1
10
-19.672310282273731
20
-107.28142622452705
30
0
10
-17.92919151930376
20
-107.28142622452705
30
0
10
-16.851210524125538
20
-106.18050936203926
30
0
0
SPLINE
5
115
100
AcDbEntity
8
0
100
AcDbSpline
70
0
71
2
72
6
73
3
74
0
42
0.000000001
43
0.0000000001
44
0.0000000001
40
0
40
0
40
0
40
1
40
1
40
1
10
-16.851210524125538
20
-106.18050936203926
30
0
10
-15.773229528947315
20
-105.07959011536568
30
0
10
-15.773229528947315
20
-103.29059961777656
30
0
0
SPLINE
5
116
100
AcDbEntity
8
0
100
AcDbSpline
70
0
71
2
72
6
73
3
74
0
42
0.000000001
43
0.0000000001
44
0.0000000001
40
0
40
0
40
0
40
1
40
1
40
1
10
-15.773229528947315
20
-103.29059961777656
30
0
10
-15.773229528947315
20
-101.52454498749702
30
0
10
-16.690659452958542
20
-100.50390366059273
30
0
0
SPLINE
5
117
100
AcDbEntity
8
0
100
AcDbSpline
70
0
71
2
72
6
73
3
74
0
42
0.000000001
43
0.0000000001
44
0.0000000001
40
0
40
0
40
0
40
1
40
1
40
1
10
-16.690659452958542
20
-100.50390366059273
30
0
10
-17.608089376969772
20
-99.483259949502639
30
0
10
-19.305338789506393
20
-99.483259949502639
30
0
0
LINE
5
118
100
AcDbEntity
8
0
100
AcDbLine
10
-19.305338789506393
20
-99.483259949502639
30
0
11
-20.956714083238083
21
-99.483259949502639
31
0
0
SPLINE
5
119
100
AcDbEntity
8
0
100
AcDbSpline
70
0
71
2
72
6
73
3
74
0
42
0.000000001
43
0.0000000001
44
0.0000000001
40
0
40
0
40
0
40
1
40
1
40
1
10
19.203836987928899
20
-127.48785141449899
30
0
10
11.703836987928899
20
-127.48785141449898
30
0
10
6.4859462484879815
20
-122.22408894043892
30
0
0
SPLINE
5
120
100
AcDbEntity
8
0
100
AcDbSpline
70
0
71
2
72
6
73
3
74
0
42
0.000000001
43
0.0000000001
44
0.0000000001
40
0
40
0
40
0
40
1
40
1
40
1
10
6.4859462484879815
20
-122.22408894043892
30
0
10
1.268055509047068
20
-116.96032646637886
30
0
10
1.268055509047068
20
-109.39151886445015
30
0
0
SPLINE
5
121
100
AcDbEntity
8
0
100
AcDbSpline
70
0
71
2
72
6
73
3
74
0
42
0.000000001
43
0.0000000001
44
0.0000000001
40
0
40
0
40
0
40
1
40
1
40
1
10
1.268055509047068
20
-109.39151886445015
30
0
10
1.2680555090470724
20
-101.84564474564522
30
0
10
6.4859462484879904
20
-96.604820523080534
30
0
0
SPLINE
5
122
100
AcDbEntity
8
0
100
AcDbSpline
70
0
71
2
72
6
73
3
74
0
42
0.000000001
43
0.0000000001
44
0.0000000001
40
0
40
0
40
0
40
1
40
1
40
1
10
6.4859462484879904
20
-96.604820523080534
30
0
10
11.703836987928909
20
-91.363993916330045
30
0
10
19.203836987928909
20
-91.363993916330045
30
0
0
SPLINE
5
123
100
AcDbEntity
8
0
100
AcDbSpline
70
0
71
2
72
6
73
3
74
0
42
0.000000001
43
0.0000000001
44
0.0000000001
40
0
40
0
40
0
40
1
40
1
40
1
10
19.203836987928909
20
-91.363993916330045
30
0
10
26.72677285523848
20
-91.363993916330045
30
0
10
31.944663594679398
20
-96.604820523080534
30
0
0
SPLINE
5
124
100
AcDbEntity
8
0
100
AcDbSpline
70
0
71
2
72
6
73
3
74
0
42
0.000000001
43
0.0000000001
44
0.0000000001
40
0
40
0
40
0
40
1
40
1
40
1
10
31.944663594679398
20
-96.604820523080534
30
0
10
37.162549565748733
20
-101.84564474564523
30
0
10
37.162549565748733
20
-109.39151886445016
30
0
0
SPLINE
5
125
100
AcDbEntity
8
0
100
AcDbSpline
70
0
71
2
72
6
73
3
74
0
42
0.000000001
43
0.0000000001
44
0.0000000001
40
0
40
0
40
0
40
1
40
1
40
1
10
37.162549565748733
20
-109.39151886445016
30
0
10
37.162549565748726
20
-116.96032646637887
30
0
10
31.944663594679387
20
-122.22408894043893
30
0
0
SPLINE
5
126
100
AcDbEntity
8
0
100
AcDbSpline
70
0
71
2
72
6
73
3
74
0
42
0.000000001
43
0.0000000001
44
0.0000000001
40
0
40
0
40
0
40
1
40
1
40
1
10
31.944663594679387
20
-122.22408894043893
30
0
10
26.726772855238469
20
-127.48785141449899
30
0
10
19.203836987928899
20
-127.48785141449899
30
0
0
SPLINE
5
127
100
AcDbEntity
8
0
100
AcDbSpline
70
0
71
2
72
6
73
3
74
0
42
0.000000001
43
0.0000000001
44
0.0000000001
40
0
40
0
40
0
40
1
40
1
40
1
10
19.203836987928909
20
-104.78142622452707
30
0
10
17.713010381178421
20
-104.78142622452707
30
0
10
16.72677285523848
20
-105.82500341874093
30
0
0
SPLINE
5
128
100
AcDbEntity
8
0
100
AcDbSpline
70
0
71
2
72
6
73
3
74
0
42
0.000000001
43
0.0000000001
44
0.0000000001
40
0
40
0
40
0
40
1
40
1
40
1
10
16.72677285523848
20
-105.82500341874093
30
0
10
15.740535329298538
20
-106.8685806129548
30
0
10
15.740535329298538
20
-108.45115307312936
30
0
0
SPLINE
5
129
100
AcDbEntity
8
0
100
AcDbSpline
70
0
71
2
72
6
73
3
74
0
42
0.000000001
43
0.0000000001
44
0.0000000001
40
0
40
0
40
0
40
1
40
1
40
1
10
15.740535329298538
20
-108.45115307312936
30
0
10
15.740535329298538
20
-110.03371838074655
30
0
10
16.72677285523848
20
-111.07729557496042
30
0
0
SPLINE
5
130
100
AcDbEntity
8
0
100
AcDbSpline
70
0
71
2
72
6
73
3
74
0
42
0.000000001
43
0.0000000001
44
0.0000000001
40
0
40
0
40
0
40
1
40
1
40
1
10
16.72677285523848
20
-111.07729557496042
30
0
10
17.713010381178421
20
-112.12087276917428
30
0
10
19.203836987928909
20
-112.12087276917428
30
0
0
SPLINE
5
131
100
AcDbEntity
8
0
100
AcDbSpline
70
0
71
2
72
6
73
3
74
0
42
0.000000001
43
0.0000000001
44
0.0000000001
40
0
40
0
40
0
40
1
40
1
40
1
10
19.203836987928909
20
-112.12087276917428
30
0
10
20.717599461988968
20
-112.12087276917428
30
0
10
21.703836987928909
20
-111.07729557496042
30
0
0
SPLINE
5
132
100
AcDbEntity
8
0
100
AcDbSpline
70
0
71
2
72
6
73
3
74
0
42
0.000000001
43
0.0000000001
44
0.0000000001
40
0
40
0
40
0
40
1
40
1
40
1
10
21.703836987928909
20
-111.07729557496042
30
0
10
22.690074513868851
20
-110.03371838074655
30
0
10
22.690074513868851
20
-108.45115307312936
30
0
0
SPLINE
5
133
100
AcDbEntity
8
0
100
AcDbSpline
70
0
71
2
72
6
73
3
74
0
42
0.000000001
43
0.0000000001
44
0.0000000001
40
0
40
0
40
0
40
1
40
1
40
1
10
22.690074513868851
20
-108.45115307312936
30
0
10
22.690074513868851
20
-106.8685806129548
30
0
10
21.703836987928909
20
-105.82500341874093
30
0
0
SPLINE
5
134
100
AcDbEntity
8
0
100
AcDbSpline
70
0
71
2
72
6
73
3
74
0
42
0.000000001
43
0.0000000001
44
0.0000000001
40
0
40
0
40
0
40
1
40
1
40
1
10
21.703836987928909
20
-105.82500341874093
30
0
10
20.717599461988968
20
-104.78142622452707
30
0
10
19.203836987928909
20
-104.78142622452707
30
0
0
ENDSEC
0
SECTION
2
OBJECTS
0
DICTIONARY
5
C
100
AcDbDictionary
3
ACAD_GROUP
350
D
3
ACAD_MLINESTYLE
350
17
0
DICTIONARY
5
D
100
AcDbDictionary
0
DICTIONARY
5
1A
330
C
100
AcDbDictionary
0
DICTIONARY
5
17
100
AcDbDictionary
0
ENDSEC
0
EOF
